/* XPM */
static char *result[] = {
/* columns rows colors chars-per-pixel */
"8 8 3 1 ",
"  c #E8070A",
". c black",
"X c white",
/* pixels */
"        ",
"........",
"........",
"........",
"........",
"........",
"........",
"........"
};
