/* XPM */
static char *result[] = {
/* columns rows colors chars-per-pixel */
"8 8 4 1 ",
"  c #E8070A",
". c black",
"X c #F5BCA0",
"o c white",
/* pixels */
"        ",
"..XXX...",
".XX.XX..",
"XX...XX.",
"X.....XX",
"XXXXXXXX",
"        ",
"........"
};
