/* XPM */
static char *result[] = {
/* columns rows colors chars-per-pixel */
"8 8 4 1 ",
"  c #F5BCA0",
". c black",
"X c #E8070A",
"o c white",
/* pixels */
"  ...  .",
" .....  ",
"        ",
"XXXXXXXX",
"........",
"........",
"........",
"........"
};
