/* XPM */
static char *b1164783c24043d48a98023730366401KTeFNYaqHrP39Cpq[] = {
/* columns rows colors chars-per-pixel */
"8 8 4 1 ",
"  c black",
". c #F5BCA0",
"X c #E8070A",
"o c white",
/* pixels */
"        ",
"        ",
"        ",
"........",
"XXXXXXXX",
"  ...   ",
" .. ..  ",
"..   .. "
};
