/* XPM */
static char *_15814081d7a422097786f2f7574b694YZMv5u4NjWTm4Ast[] = {
/* columns rows colors chars-per-pixel */
"8 8 3 1 ",
"  c black",
". c #E8070A",
"X c white",
/* pixels */
"  ....  ",
" ..  .. ",
" ..     ",
"  ..... ",
"      ..",
" ..   ..",
"  ..... ",
"        "
};
