/* XPM */
static char *_93d74ee81254d818b0af7126ffa5450v1qZJO0bF45ElAyQ[] = {
/* columns rows colors chars-per-pixel */
"8 8 4 1 ",
"  c #F5BCA0",
". c #E8070A",
"X c black",
"o c white",
/* pixels */
"        ",
"........",
"XX   XXX",
"X  X  XX",
"  XXX  X",
" XXXXX  ",
"        ",
"........"
};
