/* XPM */
static char *_487732b4af54a2afd9fe8f0dc604a24b3XU0EAHM2wzxhD8[] = {
/* columns rows colors chars-per-pixel */
"8 8 3 1 ",
"  c black",
". c #F5BCA0",
"X c white",
/* pixels */
"        ",
"        ",
"        ",
"        ",
"        ",
"        ",
"        ",
"........"
};
