/* XPM */
static char *_8d55ff4c37342b6bb9070b690dfb845sKSqbwU3PqdGSapO[] = {
/* columns rows colors chars-per-pixel */
"8 8 3 1 ",
"  c black",
". c #E8070A",
"X c white",
/* pixels */
" ..   ..",
" ..   ..",
" ..   ..",
" .......",
" ..   ..",
" ..   ..",
" ..   ..",
"        "
};
