/* XPM */
static char *baa7d33bc94e418ec303848a8f1d1556MYGIshasdIwcdykU[] = {
/* columns rows colors chars-per-pixel */
"8 8 4 1 ",
"  c black",
". c #F5BCA0",
"X c #E8070A",
"o c white",
/* pixels */
"        ",
"        ",
"        ",
"        ",
"        ",
"        ",
"........",
"XXXXXXXX"
};
