/* XPM */
static char *_97f49092a9a486f9c0323a3fb7d2449ddF5jeqt69F10uuZ[] = {
/* columns rows colors chars-per-pixel */
"8 8 4 1 ",
"  c black",
". c #F5BCA0",
"X c #E8070A",
"o c white",
/* pixels */
"        ",
"        ",
"        ",
"        ",
"........",
"XXXXXXXX",
"  ...   ",
" .. ..  "
};
