/* XPM */
static char *result[] = {
/* columns rows colors chars-per-pixel */
"30 24 12 1 ",
"  c #282828",
". c #A00000",
"X c #C80018",
"o c #F82038",
"O c #A85000",
"+ c #E86050",
"@ c #E08030",
"# c #F0C830",
"$ c #F09058",
"% c #284880",
"& c #3870A8",
"* c None",
/* pixels */
"******************************",
"******************************",
"******************************",
"******************************",
"******************************",
"******************************",
"******************************",
"******************************",
"****************    **********",
"**************  oooo  ********",
"************* XoXXXXoX *******",
"************  .XXXXXX.  ******",
"*********** $  ......  $ *****",
"*********** +$        $+ *****",
"************ +$      $+ ******",
"*************  ++++++ X ******",
"*************        X. ******",
"************* o%.XX.%. *******",
"************* X%&..&% ********",
"**************    &%% ********",
"************** #@O    ********",
"***************   O@# ********",
"******************   *********",
"******************************"
};
